<svg xmlns="http://www.w3.org/2000/svg" width="25" height="24" viewBox="0 0 25 24" fill="none">
  <rect width="24" height="24" transform="translate(0.5)" fill="white"/>
  <path d="M16.6986 14.608H15.8645L15.5688 14.3231C16.8359 12.8458 17.4905 10.8304 17.1315 8.68827C16.6352 5.75477 14.1857 3.41219 11.2294 3.05342C6.76319 2.50471 3.00442 6.26128 3.55345 10.7248C3.91244 13.6794 6.25639 16.1275 9.19161 16.6235C11.335 16.9823 13.3516 16.328 14.8298 15.0618L15.1148 15.3572V16.1909L19.6021 20.6755C20.035 21.1082 20.7424 21.1082 21.1753 20.6755C21.6082 20.2429 21.6082 19.5359 21.1753 19.1032L16.6986 14.608ZM10.3636 14.608C7.73456 14.608 5.61233 12.487 5.61233 9.85956C5.61233 7.23207 7.73456 5.11109 10.3636 5.11109C12.9926 5.11109 15.1148 7.23207 15.1148 9.85956C15.1148 12.487 12.9926 14.608 10.3636 14.608Z" fill="#043927"/>
</svg>