<svg xmlns="http://www.w3.org/2000/svg" width="24" height="24" viewBox="0 0 24 24" fill="none">
  <path d="M15.1628 15.108L15.0175 14.9681L14.7219 14.6831L14.3822 14.3557L14.6893 13.9976C15.8649 12.627 16.4714 10.7597 16.1385 8.77167C15.6791 6.05605 13.4053 3.88183 10.6691 3.54978L10.6684 3.54969C6.52461 3.04059 3.04043 6.52341 3.54971 10.6638L3.5498 10.6645C3.88196 13.3984 6.05684 15.6709 8.77416 16.1304L15.1628 15.108ZM15.1628 15.108H15.3645M15.1628 15.108H15.3645M15.3645 15.108H15.9909L20.321 19.4561L20.3219 19.4569C20.5594 19.6943 20.5594 20.0845 20.3219 20.3219C20.0842 20.5594 19.6932 20.5594 19.4556 20.3219L15.1148 15.9837V15.3572V15.1553L14.9747 15.0101L14.6896 14.7146L14.3624 14.3755M15.3645 15.108L14.3624 14.3755M14.3624 14.3755L14.0045 14.6821M14.3624 14.3755L14.0045 14.6821M14.0045 14.6821C12.633 15.8569 10.7644 16.4633 8.77491 16.1305L14.0045 14.6821ZM4.61233 9.85956C4.61233 12.7635 6.95869 15.108 9.86358 15.108C12.7685 15.108 15.1148 12.7635 15.1148 9.85956C15.1148 6.95566 12.7685 4.61109 9.86358 4.61109C6.95869 4.61109 4.61233 6.95566 4.61233 9.85956Z" fill="#969696" stroke="#969696"/>
</svg>