<svg xmlns="http://www.w3.org/2000/svg" width="16" height="16" viewBox="0 0 16 16" fill="none">
  <path d="M8.00016 1.33337C5.42016 1.33337 3.3335 3.42004 3.3335 6.00004C3.3335 9.50004 8.00016 14.6667 8.00016 14.6667C8.00016 14.6667 12.6668 9.50004 12.6668 6.00004C12.6668 3.42004 10.5802 1.33337 8.00016 1.33337ZM8.00016 7.66671C7.08016 7.66671 6.3335 6.92004 6.3335 6.00004C6.3335 5.08004 7.08016 4.33337 8.00016 4.33337C8.92016 4.33337 9.66683 5.08004 9.66683 6.00004C9.66683 6.92004 8.92016 7.66671 8.00016 7.66671Z" fill="#0E1513"/>
  <path d="M8.00016 1.33337C5.42016 1.33337 3.3335 3.42004 3.3335 6.00004C3.3335 9.50004 8.00016 14.6667 8.00016 14.6667C8.00016 14.6667 12.6668 9.50004 12.6668 6.00004C12.6668 3.42004 10.5802 1.33337 8.00016 1.33337ZM8.00016 7.66671C7.08016 7.66671 6.3335 6.92004 6.3335 6.00004C6.3335 5.08004 7.08016 4.33337 8.00016 4.33337C8.92016 4.33337 9.66683 5.08004 9.66683 6.00004C9.66683 6.92004 8.92016 7.66671 8.00016 7.66671Z" fill="black" fill-opacity="0.2"/>
</svg>