<svg xmlns="http://www.w3.org/2000/svg" width="24" height="24" viewBox="0 0 24 24" fill="none">
  <path d="M12.482 4.91708L13.9302 9.68535V10.1211H14.4302H18.8802C19.3612 10.1211 19.5668 10.7367 19.1684 11.0251C19.1682 11.0252 19.1679 11.0254 19.1676 11.0256L15.5296 13.6242L15.2356 13.8342L15.3427 14.1792L16.7727 18.7892L16.7729 18.7899C16.917 19.2522 16.3787 19.6288 15.9943 19.3342L15.9931 19.3333L12.3031 16.5233L12.0007 16.293L11.698 16.5228L8.00796 19.3228L8.0061 19.3242C7.62168 19.6188 7.08337 19.2422 7.22753 18.7799L7.22776 18.7792L8.65776 14.1692L8.76478 13.8242L8.47082 13.6142L4.83082 11.0142L4.82935 11.0132C4.43983 10.7371 4.63399 10.1111 5.1202 10.1111H9.5702H9.94016L10.0483 9.7573L11.5283 4.9173L11.5284 4.91731L11.5298 4.91245C11.6664 4.44898 12.3335 4.43076 12.482 4.91708Z" fill="white" stroke="#35B711"/>
</svg>