<svg xmlns="http://www.w3.org/2000/svg" width="24" height="24" viewBox="0 0 24 24" fill="none">
  <path d="M15.0175 14.9681L15.1628 15.108H15.3645H15.9909L20.321 19.4561L20.3219 19.4569C20.5594 19.6943 20.5594 20.0845 20.3219 20.3219C20.0842 20.5594 19.6932 20.5594 19.4556 20.3219L15.1148 15.9837V15.3572V15.1553L14.9747 15.0101L14.6896 14.7146L14.3624 14.3755L14.0045 14.6821C12.6329 15.857 10.7642 16.4633 8.77469 16.1304C6.05712 15.6712 3.88198 13.3985 3.5498 10.6645L3.54971 10.6638C3.04043 6.52341 6.52461 3.04059 10.6684 3.54969L10.6691 3.54978C13.4051 3.88181 15.6787 6.0557 16.1384 8.77102C16.4715 10.7593 15.865 12.6268 14.6893 13.9976L14.3822 14.3557L14.7219 14.6831L15.0175 14.9681ZM4.61233 9.85956C4.61233 12.7635 6.95869 15.108 9.86358 15.108C12.7685 15.108 15.1148 12.7635 15.1148 9.85956C15.1148 6.95566 12.7685 4.61109 9.86358 4.61109C6.95869 4.61109 4.61233 6.95566 4.61233 9.85956Z" fill="#969696" stroke="#969696"/>
</svg>