<svg width="16" height="16" viewBox="0 0 16 16" fill="none" xmlns="http://www.w3.org/2000/svg">
<g id="directions_walk/Round">
<path id="Vector" d="M8.66675 3.50004C9.40008 3.50004 10.0001 2.90004 10.0001 2.16671C10.0001 1.43337 9.40008 0.833374 8.66675 0.833374C7.93341 0.833374 7.33341 1.43337 7.33341 2.16671C7.33341 2.90004 7.93341 3.50004 8.66675 3.50004ZM6.20008 5.76671L4.49341 14.3734C4.40675 14.78 4.72675 15.1667 5.14675 15.1667H5.20008C5.51341 15.1667 5.78008 14.9534 5.85341 14.6467L6.93341 9.83337L8.33341 11.1667V14.5C8.33341 14.8667 8.63341 15.1667 9.00008 15.1667C9.36675 15.1667 9.66675 14.8667 9.66675 14.5V10.74C9.66675 10.3734 9.52008 10.0267 9.25341 9.77337L8.26675 8.83337L8.66675 6.83337C9.38008 7.66004 10.4134 8.25337 11.5734 8.44004C11.9734 8.50004 12.3334 8.18004 12.3334 7.77337C12.3334 7.44671 12.0934 7.17337 11.7667 7.12004C10.7534 6.95337 9.91341 6.35337 9.46675 5.56671L8.80008 4.50004C8.42675 3.90671 7.68008 3.66671 7.03341 3.94004L4.48008 5.02004C3.98675 5.23337 3.66675 5.71337 3.66675 6.25337V7.83337C3.66675 8.20004 3.96675 8.50004 4.33341 8.50004C4.70008 8.50004 5.00008 8.20004 5.00008 7.83337V6.23337L6.20008 5.76671Z" fill="white"/>
</g>
</svg>
