<svg xmlns="http://www.w3.org/2000/svg" width="44" height="44" viewBox="0 0 44 44" fill="none">
  <path d="M22.5206 1.0731L24.4419 0.122251C24.8793 -0.0944676 25.4026 -0.018616 25.7622 0.314589L27.34 1.77473C27.611 2.02396 27.9787 2.13503 28.3409 2.07001L30.4501 1.7043C30.9304 1.62032 31.4107 1.84246 31.663 2.26506L32.7686 4.11258C32.9591 4.42953 33.2811 4.63813 33.646 4.68147L35.7713 4.9307C36.2543 4.98758 36.6541 5.33704 36.7803 5.81382L37.325 7.90245C37.4189 8.26004 37.6712 8.55261 38.0066 8.69889L39.9762 9.54139C40.4243 9.73372 40.7115 10.1834 40.6981 10.6737L40.639 12.8328C40.6283 13.2012 40.7893 13.5561 41.0711 13.7891L42.7267 15.1571C43.1024 15.4686 43.2527 15.9806 43.1024 16.4493L42.4423 18.5027C42.3296 18.8549 42.3832 19.2395 42.5899 19.543L43.7947 21.3282C44.0684 21.7345 44.0684 22.2682 43.7947 22.6745L42.5899 24.457C42.3832 24.7632 42.3296 25.1478 42.4423 25.4973L43.1024 27.5507C43.2527 28.0194 43.1024 28.5314 42.7267 28.8429L41.0711 30.2109C40.7866 30.4439 40.6283 30.7988 40.639 31.1672L40.6981 33.3263C40.7115 33.8166 40.4243 34.2663 39.9762 34.4586L38.0066 35.3011C37.6685 35.4447 37.4162 35.74 37.325 36.0975L36.7803 38.1862C36.6568 38.6602 36.257 39.0124 35.7713 39.0693L33.646 39.3185C33.2811 39.3619 32.9591 39.5705 32.7686 39.8874L31.663 41.7349C31.4107 42.1548 30.9304 42.377 30.4501 42.2957L28.3409 41.93C27.9813 41.8677 27.611 41.976 27.34 42.2253L25.7622 43.6854C25.4026 44.0186 24.8793 44.0945 24.4419 43.8777L22.5206 42.9269C22.1932 42.7644 21.8068 42.7644 21.4794 42.9269L19.5581 43.8777C19.1207 44.0945 18.5974 44.0186 18.2379 43.6854L16.66 42.2253C16.389 41.976 16.0213 41.865 15.6591 41.93L13.5499 42.2957C13.0696 42.3797 12.5893 42.1575 12.337 41.7349L11.2314 39.8874C11.0409 39.5705 10.7189 39.3619 10.354 39.3185L8.2287 39.0693C7.74569 39.0124 7.34586 38.663 7.21974 38.1862L6.675 36.0975C6.58108 35.74 6.32884 35.4474 5.99341 35.3011L4.02378 34.4586C3.57565 34.2663 3.28853 33.8166 3.30195 33.3263L3.36098 31.1672C3.37171 30.7988 3.21071 30.4439 2.92895 30.2109L1.27328 28.8429C0.897603 28.5314 0.747332 28.0194 0.897603 27.5507L1.55772 25.4973C1.67043 25.1451 1.61676 24.7605 1.41014 24.457L0.205281 22.6745C-0.0684272 22.2682 -0.0684272 21.7345 0.205281 21.3282L1.41014 19.543C1.61676 19.2368 1.67043 18.8522 1.55772 18.5027L0.897603 16.4493C0.747332 15.9806 0.897603 15.4686 1.27328 15.1571L2.92895 13.7891C3.21339 13.5561 3.37171 13.2012 3.36098 12.8328L3.30195 10.6737C3.28853 10.1834 3.57565 9.73372 4.02378 9.54139L5.99341 8.69889C6.33152 8.55532 6.58377 8.26004 6.675 7.90245L7.21974 5.81382C7.34317 5.33975 7.743 4.98758 8.2287 4.9307L10.354 4.68147C10.7189 4.63813 11.0409 4.42953 11.2314 4.11258L12.337 2.26506C12.5893 1.84516 13.0696 1.62303 13.5499 1.7043L15.6591 2.07001C16.0187 2.13232 16.389 2.02396 16.66 1.77473L18.2379 0.314589C18.5974 -0.018616 19.1207 -0.0944676 19.5581 0.122251L21.4794 1.0731C21.8068 1.23564 22.1932 1.23564 22.5206 1.0731Z" fill="#35B711"/>
  <g style="mix-blend-mode:multiply" opacity="0.35">
    <path d="M40.6522 26.3696C38.1915 37.0539 27.4471 43.5311 16.963 40.6514C7.08264 37.937 1.02348 27.6971 3.34464 17.6278C5.80533 6.94353 16.5471 0.466353 27.0339 3.346C36.9142 6.0604 42.9734 16.3004 40.6522 26.3696Z" fill="#868B8F"/>
  </g>
  <path d="M40.4428 21.9322C40.4455 22.6962 40.4025 23.452 40.3167 24.1942C40.2201 25.0286 40.0671 25.8467 39.8632 26.6431C39.7773 26.9845 39.6807 27.3231 39.576 27.659C39.3801 28.2794 39.1547 28.8889 38.8971 29.4795C38.339 30.7635 37.6413 31.9717 36.8255 33.0824C36.1332 34.0278 35.3523 34.9028 34.499 35.6939C31.2306 38.7388 26.8647 40.6052 22.0667 40.6215C17.2634 40.6378 12.8814 38.8011 9.58884 35.7751C8.74357 34.9977 7.96806 34.1443 7.27842 33.2206C5.9877 31.4976 4.98678 29.5418 4.35081 27.4288C4.05295 26.44 3.83291 25.4187 3.70143 24.3676C3.60751 23.6145 3.55652 22.8479 3.55384 22.0677C3.51627 11.7817 11.7463 3.41633 21.9352 3.38111C32.1215 3.34319 40.4106 11.6489 40.4455 21.9349L40.4428 21.9322Z" fill="white"/>
  <g style="mix-blend-mode:multiply">
    <path d="M34.5237 14.2198C34.5237 14.2198 33.7697 13.1497 33.0559 13.0739C32.4172 13.0062 31.7866 13.2256 31.7866 13.2256C31.7866 13.2256 33.1283 14.1954 33.7697 14.385C34.2661 14.5313 34.5237 14.2225 34.5237 14.2225V14.2198Z" fill="#35B711" stroke="#35B711" stroke-width="0.5" stroke-linecap="round" stroke-linejoin="round"/>
    <path d="M36.6274 26.4943C36.6274 26.4943 36.9602 26.7245 37.3868 26.3344C37.9343 25.8333 38.64 23.8259 38.64 23.8259C38.64 23.8259 38.0336 24.1835 37.5237 24.6657C36.9548 25.2048 36.6274 26.4916 36.6274 26.4916V26.4943Z" fill="#35B711" stroke="#35B711" stroke-width="0.5" stroke-linecap="round" stroke-linejoin="round"/>
    <path d="M35.8463 28.648C36.5923 27.0253 37.0189 25.2536 37.1048 23.3736C37.1638 23.3925 37.4939 23.4711 37.8105 23.0349C38.2587 22.4173 38.5968 20.2907 38.5968 20.2907C38.5968 20.2907 38.0655 20.7838 37.6495 21.3743C37.2819 21.8972 37.1477 22.8399 37.1075 23.211C37.1155 23.0187 37.1209 22.8264 37.1209 22.634C37.1209 21.7861 37.0511 20.949 36.925 20.1255C37.0484 20.1038 37.3007 20.0063 37.4617 19.5945C37.7488 18.8631 37.569 16.7176 37.569 16.7176C37.569 16.7176 37.1746 17.3515 36.9143 18.045C36.7801 18.4026 36.756 18.8739 36.7694 19.2776C36.6057 18.5001 36.383 17.7416 36.1092 17.0075C36.2085 16.9749 36.4822 16.8422 36.5815 16.3519C36.7372 15.5717 36.179 13.5075 36.179 13.5075C36.179 13.5075 35.9053 14.2172 35.7738 14.954C35.6853 15.4525 35.8114 16.0972 35.9268 16.5334C35.5779 15.6882 35.154 14.8755 34.6602 14.1116C34.7327 14.0736 35.0171 13.8975 35.0251 13.3557C35.0359 12.5566 34.0833 10.663 34.0833 10.663C34.0833 10.663 33.9518 11.4188 33.9625 12.1692C33.9732 12.7977 34.3489 13.5779 34.5394 13.9328C34.2228 13.456 33.8766 12.9982 33.5063 12.5593C33.4178 12.2722 33.1333 11.5976 32.3364 11.0748C31.4079 10.4653 29.873 9.86658 29.873 9.86658C29.873 9.86658 31.5179 11.4513 32.3686 12.1015C32.8757 12.4862 33.2917 12.6324 33.4607 12.6785C34.4536 13.8542 35.2532 15.1816 35.8409 16.6092C35.6209 16.2381 35.272 15.7559 34.8722 15.6205C34.2684 15.4146 33.6217 15.4877 33.6217 15.4877C33.6217 15.4877 34.7327 16.7311 35.3203 17.0589C35.6692 17.254 35.9295 17.1537 36.0314 17.0969C36.3722 18.0152 36.6271 18.9715 36.7908 19.9521C36.6728 19.5674 36.383 18.7575 35.9187 18.4757C35.3659 18.1398 34.7219 18.0694 34.7219 18.0694C34.7219 18.0694 35.586 19.5349 36.1039 19.9873C36.4447 20.2853 36.7425 20.2041 36.823 20.1743C36.9465 20.9788 37.0136 21.7996 37.0136 22.6313C37.0136 22.8778 37.0082 23.1216 36.9948 23.3654C36.9814 23.1948 36.866 21.9947 36.3642 21.526C35.8785 21.0709 35.2613 20.8596 35.2613 20.8596C35.2613 20.8596 35.8624 22.4904 36.2944 23.0485C36.6164 23.4603 36.9599 23.3952 36.9921 23.3871C36.9411 24.4355 36.7828 25.4486 36.5225 26.4212C36.5413 26.1476 36.5923 25.0558 36.2005 24.5168C35.798 23.9641 35.2264 23.6174 35.2264 23.6174C35.2264 23.6174 35.5484 25.3511 35.8838 25.9959C36.12 26.4537 36.45 26.4835 36.5064 26.4835C36.2568 27.4018 35.9187 28.2822 35.4867 29.122C35.5726 28.7076 35.6906 27.8922 35.4464 27.3802C35.1432 26.7463 34.6387 26.2803 34.6387 26.2803C34.6387 26.2803 34.6683 28.052 34.8856 28.7617C35.0117 29.1681 35.2452 29.3117 35.3579 29.3604C34.8507 30.3004 34.2309 31.1863 33.4983 32.0017C33.6486 31.6468 33.9598 30.807 33.7961 30.2165C33.6083 29.5284 33.1924 28.9568 33.1924 28.9568C33.1924 28.9568 32.9133 30.7014 33.0019 31.4436C33.0528 31.8798 33.2675 32.0721 33.3668 32.1398C33.2702 32.2428 33.1763 32.3484 33.077 32.4514C32.5832 32.958 32.0412 33.4293 31.4643 33.8736C31.7219 33.5214 32.0707 32.9552 32.0653 32.4487C32.0573 31.7308 31.797 31.0535 31.797 31.0535C31.797 31.0535 31.0805 32.6437 30.9705 33.3833C30.9115 33.7761 31.0349 34.0145 31.1181 34.1309C30.4848 34.5888 29.8086 35.0059 29.1002 35.3798C29.3792 35.1739 30.1225 34.5698 30.2487 33.9359C30.3882 33.2343 30.2621 32.5137 30.2621 32.5137C30.2621 32.5137 29.2182 33.9034 28.9499 34.5996C28.7647 35.0764 28.9418 35.3798 28.9848 35.4421C28.2683 35.8132 27.5169 36.141 26.7361 36.4255C27.1064 36.2358 27.8873 35.7834 28.1073 35.2172C28.3676 34.5454 28.3488 33.8167 28.3488 33.8167C28.3488 33.8167 27.042 35.0276 26.6395 35.6696C26.3711 36.1004 26.4919 36.42 26.5294 36.5013C25.6225 36.8183 24.6779 37.0729 23.7092 37.2598C21.9032 37.6066 20.8487 38.3163 20.2583 38.9015C20.2986 38.915 20.3388 38.9286 20.3764 38.9394C20.964 38.3732 21.9918 37.7041 23.728 37.3709C24.694 37.1867 25.6332 36.932 26.5402 36.6178C26.5536 36.7126 26.6368 37.0512 27.1466 37.1867C27.9141 37.3926 29.9615 36.8237 29.9615 36.8237C29.9615 36.8237 29.3148 36.4959 28.6145 36.3279C28.1127 36.206 27.3989 36.3496 26.9534 36.4688C27.6672 36.2033 28.3569 35.8972 29.017 35.5559C29.0277 35.5965 29.1297 35.9812 29.6744 36.0462C30.4177 36.1356 32.2532 35.2741 32.2532 35.2741C32.2532 35.2741 31.5904 35.0466 30.9061 34.9816C30.3936 34.9328 29.72 35.2037 29.3309 35.3879C30.0072 35.0195 30.6512 34.6158 31.2549 34.1716C31.3086 34.2745 31.4857 34.5346 31.9365 34.5129C32.6557 34.4777 34.2926 33.321 34.2926 33.321C34.2926 33.321 33.619 33.2045 32.9509 33.2559C32.6262 33.2803 32.2559 33.451 31.9446 33.6352C32.3686 33.2857 32.7738 32.9227 33.1494 32.5381C33.2514 32.4324 33.3507 32.324 33.45 32.2157C33.5144 32.3051 33.7264 32.5326 34.1665 32.4243C34.8588 32.2536 36.289 30.8043 36.289 30.8043C36.289 30.8043 35.6101 30.8179 34.9661 30.9966C34.6226 31.0915 34.2577 31.3651 33.9706 31.6251C34.5448 30.9289 35.0412 30.1867 35.4625 29.4038C35.5484 29.4715 35.8087 29.6232 36.2005 29.3956C36.8257 29.0326 37.8723 27.2285 37.8723 27.2285C37.8723 27.2285 37.2175 27.437 36.6352 27.7919C36.3347 27.9734 36.0556 28.3256 35.8436 28.6507L35.8463 28.648Z" fill="#35B711" stroke="#35B711" stroke-width="0.5" stroke-linecap="round" stroke-linejoin="round"/>
  </g>
  <g style="mix-blend-mode:multiply">
    <path d="M9.32031 14.2197C9.32031 14.2197 10.0744 13.1496 10.7881 13.0738C11.4268 13.006 12.0574 13.2255 12.0574 13.2255C12.0574 13.2255 10.7157 14.1953 10.0744 14.3849C9.57792 14.5312 9.32031 14.2224 9.32031 14.2224V14.2197Z" fill="#35B711" stroke="#35B711" stroke-width="0.5" stroke-linecap="round" stroke-linejoin="round"/>
    <path d="M7.21911 26.4943C7.21911 26.4943 6.88636 26.7245 6.4597 26.3344C5.91228 25.8333 5.20654 23.8259 5.20654 23.8259C5.20654 23.8259 5.813 24.1835 6.32284 24.6657C6.89173 25.2048 7.21911 26.4916 7.21911 26.4916V26.4943Z" fill="#35B711" stroke="#35B711" stroke-width="0.5" stroke-linecap="round" stroke-linejoin="round"/>
    <path d="M7.99709 28.648C7.2511 27.0253 6.82443 25.2536 6.73856 23.3736C6.67953 23.3925 6.34947 23.4711 6.03282 23.0349C5.58469 22.4173 5.24658 20.2907 5.24658 20.2907C5.24658 20.2907 5.7779 20.7838 6.19383 21.3743C6.56146 21.8972 6.69563 22.8399 6.73588 23.211C6.72783 23.0187 6.72246 22.8264 6.72246 22.634C6.72246 21.7861 6.79223 20.949 6.91835 20.1255C6.79491 20.1038 6.54267 20.0063 6.38167 19.5945C6.09454 18.8631 6.27433 16.7176 6.27433 16.7176C6.27433 16.7176 6.66879 17.3515 6.92909 18.045C7.06326 18.4026 7.08741 18.8739 7.07399 19.2776C7.23768 18.5001 7.4604 17.7416 7.73411 17.0075C7.63482 16.9749 7.36112 16.8422 7.26183 16.3519C7.10619 15.5717 7.66434 13.5075 7.66434 13.5075C7.66434 13.5075 7.93805 14.2172 8.06954 14.954C8.15809 15.4525 8.03197 16.0972 7.91658 16.5334C8.26543 15.6882 8.68941 14.8755 9.18316 14.1116C9.1107 14.0736 8.82626 13.8975 8.81821 13.3557C8.80748 12.5566 9.76009 10.663 9.76009 10.663C9.76009 10.663 9.89158 11.4188 9.88084 12.1692C9.87011 12.7977 9.49443 13.5779 9.30391 13.9328C9.62055 13.456 9.96671 12.9982 10.337 12.5593C10.4256 12.2722 10.71 11.5976 11.507 11.0748C12.4355 10.4653 13.9704 9.86658 13.9704 9.86658C13.9704 9.86658 12.3254 11.4513 11.4748 12.1015C10.9676 12.4862 10.5517 12.6324 10.3826 12.6785C9.38978 13.8542 8.59012 15.1816 8.00245 16.6092C8.22249 16.2381 8.57134 15.7559 8.97117 15.6205C9.57494 15.4146 10.2216 15.4877 10.2216 15.4877C10.2216 15.4877 9.1107 16.7311 8.52304 17.0589C8.17419 17.254 7.9139 17.1537 7.81193 17.0969C7.47114 18.0152 7.21621 18.9715 7.05252 19.9521C7.17059 19.5674 7.4604 18.7575 7.92463 18.4757C8.47742 18.1398 9.12144 18.0694 9.12144 18.0694C9.12144 18.0694 8.25738 19.5349 7.73948 19.9873C7.39868 20.2853 7.10082 20.2041 7.02032 20.1743C6.89688 20.9788 6.8298 21.7996 6.8298 22.6313C6.8298 22.8778 6.83517 23.1216 6.84858 23.3654C6.862 23.1948 6.97739 21.9947 7.47919 21.526C7.96488 21.0709 8.58207 20.8596 8.58207 20.8596C8.58207 20.8596 7.98098 22.4904 7.54895 23.0485C7.22694 23.4603 6.88347 23.3952 6.85127 23.3871C6.90225 24.4355 7.06057 25.4486 7.32086 26.4212C7.30208 26.1476 7.2511 25.0558 7.64287 24.5168C8.04539 23.9641 8.61696 23.6174 8.61696 23.6174C8.61696 23.6174 8.29494 25.3511 7.95952 25.9959C7.72338 26.4537 7.39332 26.4835 7.33696 26.4835C7.58652 27.4018 7.92463 28.2822 8.35666 29.122C8.27079 28.7076 8.15272 27.8922 8.39691 27.3802C8.70014 26.7463 9.20462 26.2803 9.20462 26.2803C9.20462 26.2803 9.17511 28.052 8.95775 28.7617C8.83163 29.1681 8.59817 29.3117 8.48547 29.3604C8.99263 30.3004 9.6125 31.1863 10.3451 32.0017C10.1948 31.6468 9.88353 30.807 10.0472 30.2165C10.2351 29.5284 10.651 28.9568 10.651 28.9568C10.651 28.9568 10.9301 30.7014 10.8415 31.4436C10.7905 31.8798 10.5759 32.0721 10.4766 32.1398C10.5732 32.2428 10.6671 32.3484 10.7664 32.4514C11.2601 32.958 11.8022 33.4293 12.3791 33.8736C12.1215 33.5214 11.7727 32.9552 11.778 32.4487C11.7861 31.7308 12.0464 31.0535 12.0464 31.0535C12.0464 31.0535 12.7628 32.6437 12.8729 33.3833C12.9319 33.7761 12.8085 34.0145 12.7253 34.1309C13.3586 34.5888 14.0348 35.0059 14.7432 35.3798C14.4641 35.1739 13.7208 34.5698 13.5947 33.9359C13.4552 33.2343 13.5813 32.5137 13.5813 32.5137C13.5813 32.5137 14.6251 33.9034 14.8935 34.5996C15.0786 35.0764 14.9015 35.3798 14.8586 35.4421C15.5751 35.8132 16.3264 36.141 17.1073 36.4255C16.737 36.2358 15.9561 35.7834 15.7361 35.2172C15.4758 34.5454 15.4946 33.8167 15.4946 33.8167C15.4946 33.8167 16.8014 35.0276 17.2039 35.6696C17.4722 36.1004 17.3515 36.42 17.3139 36.5013C18.2209 36.8183 19.1655 37.0729 20.1342 37.2598C21.9401 37.6066 22.9947 38.3163 23.5851 38.9015C23.5448 38.915 23.5046 38.9286 23.467 38.9394C22.8793 38.3732 21.8516 37.7041 20.1154 37.3709C19.1494 37.1867 18.2102 36.932 17.3032 36.6178C17.2898 36.7126 17.2066 37.0512 16.6967 37.1867C15.9293 37.3926 13.8818 36.8237 13.8818 36.8237C13.8818 36.8237 14.5285 36.4959 15.2289 36.3279C15.7307 36.206 16.4445 36.3496 16.8899 36.4688C16.1761 36.2033 15.4865 35.8972 14.8264 35.5559C14.8157 35.5965 14.7137 35.9812 14.1689 36.0462C13.4256 36.1356 11.5902 35.2741 11.5902 35.2741C11.5902 35.2741 12.253 35.0466 12.9373 34.9816C13.4498 34.9328 14.1233 35.2037 14.5124 35.3879C13.8362 35.0195 13.1922 34.6158 12.5884 34.1716C12.5347 34.2745 12.3576 34.5346 11.9068 34.5129C11.1877 34.4777 9.55078 33.321 9.55078 33.321C9.55078 33.321 10.2243 33.2045 10.8925 33.2559C11.2172 33.2803 11.5875 33.451 11.8988 33.6352C11.4748 33.2857 11.0696 32.9227 10.6939 32.5381C10.592 32.4324 10.4927 32.324 10.3934 32.2157C10.329 32.3051 10.117 32.5326 9.67691 32.4243C8.98458 32.2536 7.55432 30.8043 7.55432 30.8043C7.55432 30.8043 8.23323 30.8179 8.87725 30.9966C9.22072 31.0915 9.58567 31.3651 9.87279 31.6251C9.29854 30.9289 8.80211 30.1867 8.38081 29.4038C8.29494 29.4715 8.03465 29.6232 7.64287 29.3956C7.01764 29.0326 5.97111 27.2285 5.97111 27.2285C5.97111 27.2285 6.62586 27.437 7.20816 27.7919C7.5087 27.9734 7.78778 28.3256 7.99977 28.6507L7.99709 28.648Z" fill="#35B711" stroke="#35B711" stroke-width="0.5" stroke-linecap="round" stroke-linejoin="round"/>
  </g>
  <g style="mix-blend-mode:multiply">
    <path d="M23.91 19.8367V32.6196H22.3185V21.4963H22.2485L19.1704 23.5621V21.9554L22.3185 19.8367H23.91Z" fill="#B6C5CD"/>
    <path d="M25.2959 17.625V12.3923H27.0571C28.2742 12.3923 28.8254 13.1223 28.8254 14.0547C28.8254 14.9798 28.2742 15.7242 27.0642 15.7242H25.9402V17.625H25.2959ZM25.9402 15.146H27.0356C27.8589 15.146 28.1882 14.6762 28.1882 14.0547C28.1882 13.4259 27.8589 12.9705 27.0284 12.9705H25.9402V15.146Z" fill="#B6C5CD"/>
    <path d="M24.352 15.0088C24.352 16.6639 23.3855 17.6974 22.061 17.6974C20.7294 17.6974 19.77 16.6639 19.77 15.0088C19.77 13.3537 20.7294 12.3202 22.061 12.3202C23.3855 12.3202 24.352 13.3537 24.352 15.0088ZM23.7291 15.0088C23.7291 13.6573 22.9989 12.9273 22.061 12.9273C21.1231 12.9273 20.3929 13.6573 20.3929 15.0088C20.3929 16.3604 21.1231 17.0903 22.061 17.0903C22.9989 17.0903 23.7291 16.3604 23.7291 15.0088Z" fill="#B6C5CD"/>
    <path d="M15.417 12.9705V12.3923H19.326V12.9705H17.7008V17.625H17.0493V12.9705H15.417Z" fill="#B6C5CD"/>
  </g>
  <path d="M23.6415 19.2622V32.0452H22.0499V20.9219H21.98L18.9019 22.9876V21.3809L22.0499 19.2622H23.6415Z" fill="#043927"/>
  <path d="M25.0288 17.0509V11.8182H26.79C28.0071 11.8182 28.5583 12.5482 28.5583 13.4806C28.5583 14.4057 28.0071 15.1501 26.7971 15.1501H25.6731V17.0509H25.0288ZM25.6731 14.5719H26.7685C27.5918 14.5719 27.9212 14.1021 27.9212 13.4806C27.9212 12.8518 27.5918 12.3964 26.7614 12.3964H25.6731V14.5719Z" fill="#043927"/>
  <path d="M24.0834 14.4345C24.0834 16.0896 23.1169 17.1231 21.7924 17.1231C20.4608 17.1231 19.5015 16.0896 19.5015 14.4345C19.5015 12.7794 20.4608 11.7458 21.7924 11.7458C23.1169 11.7458 24.0834 12.7794 24.0834 14.4345ZM23.4605 14.4345C23.4605 13.0829 22.7303 12.353 21.7924 12.353C20.8546 12.353 20.1243 13.0829 20.1243 14.4345C20.1243 15.786 20.8546 16.516 21.7924 16.516C22.7303 16.516 23.4605 15.786 23.4605 14.4345Z" fill="#043927"/>
  <path d="M15.1484 12.3964V11.8182H19.0574V12.3964H17.4322V17.0509H16.7808V12.3964H15.1484Z" fill="#043927"/>
</svg>